<svg xmlns="http://www.w3.org/2000/svg" viewBox="0 0 400 300" fill="none">
  <rect width="400" height="300" rx="16" fill="#FEF2F2"/>
  <rect x="150" y="50" width="100" height="100" rx="50" fill="#C0170F" opacity="0.1"/>
  <path d="M200 75v50M175 100h50" stroke="#C0170F" stroke-width="3" stroke-linecap="round"/>
  <path d="M140 180c0-33 60-70 60-70s60 37 60 70c0 25-20 45-40 50-8 2-12 2-20 0-20-5-40-25-40-50z" fill="#C0170F" opacity="0.12" stroke="#C0170F" stroke-width="1.5" opacity="0.3"/>
  <circle cx="200" cy="190" r="12" fill="#C0170F" opacity="0.2"/>
  <path d="M194 190l4 4 8-8" stroke="#C0170F" stroke-width="2" stroke-linecap="round" stroke-linejoin="round"/>
  <rect x="120" y="255" width="160" height="8" rx="4" fill="#C0170F" opacity="0.08"/>
  <rect x="145" y="270" width="110" height="6" rx="3" fill="#C0170F" opacity="0.06"/>
</svg>
