<svg xmlns="http://www.w3.org/2000/svg" viewBox="0 0 400 300" fill="none">
  <rect width="400" height="300" rx="16" fill="#FEF2F2"/>
  <circle cx="200" cy="130" r="60" fill="#C0170F" opacity="0.08" stroke="#C0170F" stroke-width="1.5" opacity="0.15"/>
  <circle cx="200" cy="130" r="35" fill="#C0170F" opacity="0.12"/>
  <path d="M188 130l8 8 16-16" stroke="white" stroke-width="2.5" stroke-linecap="round" stroke-linejoin="round"/>
  <rect x="100" y="210" width="60" height="50" rx="8" fill="#C0170F" opacity="0.1"/>
  <rect x="170" y="210" width="60" height="50" rx="8" fill="#C0170F" opacity="0.15"/>
  <rect x="240" y="210" width="60" height="50" rx="8" fill="#C0170F" opacity="0.1"/>
  <rect x="112" y="225" width="36" height="4" rx="2" fill="#C0170F" opacity="0.2"/>
  <rect x="112" y="235" width="28" height="4" rx="2" fill="#C0170F" opacity="0.15"/>
  <rect x="182" y="225" width="36" height="4" rx="2" fill="#C0170F" opacity="0.2"/>
  <rect x="182" y="235" width="28" height="4" rx="2" fill="#C0170F" opacity="0.15"/>
  <rect x="252" y="225" width="36" height="4" rx="2" fill="#C0170F" opacity="0.2"/>
  <rect x="252" y="235" width="28" height="4" rx="2" fill="#C0170F" opacity="0.15"/>
</svg>
